P2
10 10
255
26 27 28 28 28 28 29 130 34 34 34 35 37 39 39 40 46 147 48 46 42 41 42 43 46 50 
152 52 50 50 53 58 56 52 52 56 156 52 52 56 62 60 57 55 55 56 157 59 62 59 56 54 
56 61 67 171 71 71 72 72 75 76 78 79 79 80 81 84 85 86 86 86 87 90 92 91 87 87 
91 95 93 91 90 89 89 89 89 89 89 88 86 88 90 90 88 85 88 86 84 82
